<?xml version="1.0" encoding="utf-8"?><svg viewBox="0 0 30 30" xmlns="http://www.w3.org/2000/svg" xmlns:xlink="http://www.w3.org/1999/xlink"><style>:root>svg{display:none}:root>svg:target{display:block}</style><svg fill="none" viewBox="0 0 24 25" id="clock" xmlns="http://www.w3.org/2000/svg"><path d="M19.071 5.025c3.905 3.905 3.905 10.236 0 14.142-3.905 3.905-10.237 3.905-14.142 0-3.905-3.906-3.905-10.237 0-14.142 3.905-3.906 10.237-3.906 14.142 0Z" stroke="#5600AC" stroke-width="2" stroke-linecap="round" stroke-linejoin="round"/><path d="m16.5 15.096-4.5-2.5v-7" stroke="#5600AC" stroke-width="2" stroke-linecap="round" stroke-linejoin="round"/></svg><svg fill="none" viewBox="0 0 30 30" id="close" xmlns="http://www.w3.org/2000/svg"><path d="M22.143 22.143 7.857 7.857m14.286 0L7.857 22.143" stroke="#373740" stroke-width="2" stroke-linecap="round" stroke-linejoin="round" opacity=".7"/></svg><svg fill="none" viewBox="0 0 24 25" id="map-pin" xmlns="http://www.w3.org/2000/svg"><path fill-rule="evenodd" clip-rule="evenodd" d="M6 9.096c0-2.018.692-3.492 1.734-4.466C8.786 3.646 10.278 3.096 12 3.096c1.72 0 3.213.554 4.266 1.542C17.31 5.616 18 7.09 18 9.096c0 2.938-1.595 5.974-3.312 8.362A30.175 30.175 0 0 1 12 20.684a30.2 30.2 0 0 1-2.688-3.226C7.596 15.07 6 12.035 6 9.096Zm5.32 13.733.68-.733-.679.734a1 1 0 0 0 1.358 0L12 22.096l.68.733.002-.002.005-.005.018-.017a10.532 10.532 0 0 0 .3-.29 32.2 32.2 0 0 0 3.307-3.89C18.096 16.145 20 12.68 20 9.095c0-2.494-.876-4.52-2.366-5.916C16.154 1.79 14.146 1.096 12 1.096c-2.143 0-4.151.688-5.633 2.073C4.876 4.564 4 6.59 4 9.096c0 3.584 1.905 7.048 3.688 9.53a32.214 32.214 0 0 0 3.307 3.889 17.55 17.55 0 0 0 .3.29l.018.017.005.005.002.002ZM10 9.095a2 2 0 1 1 4 0 2 2 0 0 1-4 0Zm2-4a4 4 0 1 0 0 8 4 4 0 0 0 0-8Z" fill="#5600AC"/></svg><svg fill="none" viewBox="0 0 12 13" id="minus" xmlns="http://www.w3.org/2000/svg"><g clip-path="url(#da)"><path fill="#5600AC" d="M12 5.299v2H0v-2z"/></g><defs><clipPath id="da"><path fill="#fff" transform="rotate(90 5.85 6.15)" d="M0 0h12v12H0z"/></clipPath></defs></svg><svg fill="none" viewBox="0 0 24 25" id="phone" xmlns="http://www.w3.org/2000/svg"><path clip-rule="evenodd" d="M7.488 3.377 10.5 6.573a1.033 1.033 0 0 1 0 1.414L9.046 9.536c.914 2.795 2.958 5.03 5.55 6.088l.29.112 1.38-1.467a1.016 1.016 0 0 1 1.443-.04l3.012 3.196a1.033 1.033 0 0 1 0 1.414l-.748.796c-1.369 1.455-3.452 1.865-5.281 1.04-2.587-1.167-4.674-2.594-6.261-4.28-1.588-1.685-2.932-3.902-4.032-6.65-.747-1.865-.423-3.98.814-5.434l.16-.178.673-.716a1.016 1.016 0 0 1 1.443-.04Z" stroke="#5600AC" stroke-width="2" stroke-linecap="round" stroke-linejoin="round"/></svg><svg fill="none" viewBox="0 0 12 13" id="plus" xmlns="http://www.w3.org/2000/svg"><g clip-path="url(#fa)" fill="#5600AC"><path d="M5 .299h2v12H5z"/><path d="M12 5.299v2H0v-2z"/></g><defs><clipPath id="fa"><path fill="#fff" transform="rotate(90 5.85 6.15)" d="M0 0h12v12H0z"/></clipPath></defs></svg><svg fill="none" viewBox="0 0 24 24" id="tel" xmlns="http://www.w3.org/2000/svg"><g clip-path="url(#ga)"><path d="M23.5 12c0 6.351-5.149 11.5-11.5 11.5S.5 18.351.5 12 5.649.5 12 .5 23.5 5.649 23.5 12Z" fill="#000" stroke="#000"/><path fill-rule="evenodd" clip-rule="evenodd" d="m9.257 6.188 1.949 2.13a.704.704 0 0 1 0 .943l-.942 1.032c.592 1.864 1.915 3.354 3.591 4.06l.188.074.893-.978a.644.644 0 0 1 .934-.027l1.949 2.13a.704.704 0 0 1 0 .943l-.485.531c-.885.97-2.233 1.244-3.417.693-1.673-.778-3.024-1.729-4.05-2.852-1.028-1.124-1.898-2.602-2.61-4.434-.483-1.244-.273-2.654.527-3.623l.103-.119.436-.477a.644.644 0 0 1 .934-.026Z" fill="#fff"/></g><defs><clipPath id="ga"><path fill="#fff" d="M0 0h24v24H0z"/></clipPath></defs></svg><svg fill="none" viewBox="0 0 24 25" id="telegram" xmlns="http://www.w3.org/2000/svg"><path d="m7.5 13.096-4.5-2.5 18.5-7.5-3 17-5.5-4-3.5 4-.046-.161M7.5 13.095l9-4.5-5 5.5-2.046 5.84M7.5 13.095l1.954 6.84" stroke="#5600AC" stroke-width="2" stroke-linejoin="round"/></svg><svg fill="none" viewBox="0 0 24 24" id="tg" xmlns="http://www.w3.org/2000/svg"><path d="M23.5 12c0 6.351-5.149 11.5-11.5 11.5S.5 18.351.5 12 5.649.5 12 .5 23.5 5.649 23.5 12Z" fill="#000" stroke="#000"/><path d="M9.8 17.5c-.389 0-.323-.147-.457-.517L8.2 13.221 17 8" fill="#C8DAEA"/><path d="M9.8 17.5c.3 0 .433-.137.6-.3l1.6-1.556-1.996-1.204" fill="#A9C9DD"/><path d="m10.004 14.44 4.836 3.574c.552.304.95.146 1.088-.513l1.968-9.276c.202-.808-.308-1.174-.836-.935L5.501 11.747c-.789.317-.784.757-.144.953l2.967.926 6.867-4.333c.324-.196.622-.09.377.126" fill="url(#paint0_linear_409_68)"/></svg></svg>