<svg width="750" height="205" viewBox="0 0 750 205" fill="none" xmlns="http://www.w3.org/2000/svg">
<path d="M646.908 114.817V1.54834H677.659V47.3424H679.207L713.276 1.54834H749.115L710.843 51.9882L750 114.817H713.276L687.835 72.3411L677.659 85.6147V114.817H646.908Z" fill="black"/>
<path d="M632.956 44.0245H601.763C601.542 41.4435 600.952 39.1022 599.993 37.0005C599.072 34.8989 597.781 33.0922 596.122 31.5805C594.5 30.0319 592.527 28.852 590.204 28.0408C587.881 27.1928 585.245 26.7688 582.295 26.7688C577.133 26.7688 572.764 28.0224 569.187 30.5296C565.648 33.0369 562.956 36.6318 561.113 41.3145C559.306 45.9971 558.403 51.62 558.403 58.183C558.403 65.1148 559.324 70.9221 561.168 75.6047C563.048 80.2505 565.758 83.7532 569.298 86.113C572.838 88.4359 577.096 89.5973 582.074 89.5973C584.913 89.5973 587.457 89.2471 589.706 88.5465C591.955 87.8091 593.91 86.7582 595.569 85.394C597.228 84.0298 598.574 82.389 599.606 80.4717C600.675 78.5175 601.394 76.3237 601.763 73.8902L632.956 74.1114C632.588 78.9047 631.242 83.7901 628.919 88.7677C626.596 93.7085 623.296 98.2805 619.019 102.484C614.779 106.65 609.525 110.006 603.256 112.55C596.988 115.094 589.706 116.366 581.41 116.366C571.013 116.366 561.684 114.135 553.425 109.674C545.203 105.212 538.695 98.6492 533.902 89.9845C529.145 81.3197 526.767 70.7193 526.767 58.183C526.767 45.5731 529.201 34.9542 534.068 26.3263C538.935 17.6616 545.498 11.1169 553.757 6.69237C562.016 2.23095 571.234 0.000244141 581.41 0.000244141C588.563 0.000244141 595.145 0.977331 601.155 2.9315C607.165 4.88568 612.437 7.7432 616.973 11.5041C621.508 15.2281 625.158 19.8185 627.923 25.2755C630.689 30.7324 632.366 36.9821 632.956 44.0245Z" fill="black"/>
<path d="M437.998 116.366H404.814L442.201 0.000244141H484.235L521.622 116.366H488.438L463.66 32.0462H462.776L437.998 116.366ZM431.804 70.456H494.19V94.0927H431.804V70.456Z" fill="black"/>
<path d="M320.514 116.366V0.000244141H369.405C377.812 0.000244141 385.167 1.70482 391.472 5.11397C397.777 8.52311 402.681 13.3149 406.184 19.4892C409.687 25.6636 411.438 32.8796 411.438 41.1373C411.438 49.4708 409.631 56.6868 406.018 62.7854C402.442 68.884 397.409 73.581 390.919 76.8765C384.467 80.172 376.927 81.8198 368.299 81.8198H339.097V57.2739H362.104C365.718 57.2739 368.797 56.63 371.341 55.3421C373.922 54.0163 375.894 52.1413 377.258 49.717C378.66 47.2927 379.36 44.4328 379.36 41.1373C379.36 37.8039 378.66 34.963 377.258 32.6144C375.894 30.228 373.922 28.4098 371.341 27.1598C368.797 25.8719 365.718 25.2279 362.104 25.2279H351.264V116.366H320.514Z" fill="black"/>
<path d="M223.631 116.366V0.000244141H305.264V25.4552H254.381V45.4556H301.06V70.9105H254.381V90.9109H305.043V116.366H223.631Z" fill="black"/>
<path d="M119.598 116.366V0.000244141H169.67C178.279 0.000244141 185.813 1.57224 192.27 4.71623C198.727 7.86023 203.749 12.3868 207.337 18.296C210.924 24.2052 212.718 31.2886 212.718 39.5464C212.718 47.8798 210.868 54.9065 207.167 60.6263C203.504 66.3461 198.35 70.6643 191.704 73.581C185.095 76.4977 177.373 77.9561 168.537 77.9561H138.63V53.4102H162.193C165.894 53.4102 169.047 52.9557 171.652 52.0466C174.296 51.0996 176.316 49.6033 177.713 47.5579C179.148 45.5124 179.865 42.8419 179.865 39.5464C179.865 36.213 179.148 33.5046 177.713 31.4212C176.316 29.3 174.296 27.7469 171.652 26.7621C169.047 25.7393 165.894 25.2279 162.193 25.2279H151.091V116.366H119.598ZM187.569 62.9558L216.569 116.366H182.358L154.037 62.9558H187.569Z" fill="black"/>
<rect x="35.5562" y="0.000244141" width="6.46476" height="116.366" fill="black"/>
<rect x="100.204" y="0.000244141" width="6.46476" height="116.366" fill="black"/>
<rect x="3.23242" width="12.9295" height="116.366" fill="black"/>
<rect x="113.133" y="0.000244141" width="12.9295" height="116.366" fill="black"/>
<rect x="54.9502" y="0.000244141" width="38.7885" height="116.366" fill="black"/>
<path d="M710.398 155.206V149.546H749.911V155.206H733.345V202.23H726.965V155.206H710.398Z" fill="black"/>
<path d="M633.579 202.23V149.546H639.959V173.007H668.05V149.546H674.429V202.23H668.05V178.666H639.959V202.23H633.579Z" fill="black"/>
<path d="M564.208 202.23V149.546H596.003V155.206H570.588V173.007H594.357V178.666H570.588V196.57H596.415V202.23H564.208Z" fill="black"/>
<path d="M473.682 149.546H481.296L499.201 193.278H499.818L517.722 149.546H525.337V202.23H519.369V162.203H518.854L502.39 202.23H496.628L480.165 162.203H479.65V202.23H473.682V149.546Z" fill="black"/>
<path d="M391.435 202.23V196.365H392.979C395.174 196.365 396.88 195.662 398.098 194.255C399.315 192.849 400.19 190.577 400.722 187.438C401.27 184.3 401.639 180.141 401.828 174.962L402.754 149.546H434.858V202.23H428.478V155.206H408.825L408.002 176.197C407.796 181.719 407.29 186.418 406.484 190.294C405.678 194.17 404.263 197.128 402.239 199.169C400.216 201.209 397.266 202.23 393.39 202.23H391.435Z" fill="black"/>
<path d="M315.343 149.546H321.62V191.014H322.134L350.946 149.546H357.12V202.23H350.74V160.865H350.225L321.517 202.23H315.343V149.546Z" fill="black"/>
<path d="M250.074 155.823H258.408C262.318 155.823 265.791 156.698 268.827 158.447C271.862 160.196 274.246 162.631 275.978 165.753C277.71 168.874 278.576 172.492 278.576 176.608C278.576 180.724 277.71 184.351 275.978 187.49C274.246 190.628 271.862 193.08 268.827 194.847C265.791 196.613 262.318 197.496 258.408 197.496H250.074C246.164 197.496 242.691 196.622 239.655 194.872C236.62 193.123 234.236 190.688 232.504 187.567C230.772 184.446 229.906 180.827 229.906 176.711C229.906 172.595 230.772 168.968 232.504 165.83C234.236 162.691 236.62 160.239 239.655 158.473C242.691 156.706 246.164 155.823 250.074 155.823ZM250.074 161.482C247.09 161.482 244.569 162.108 242.511 163.36C240.47 164.612 238.918 166.378 237.855 168.659C236.808 170.94 236.285 173.624 236.285 176.711C236.285 179.764 236.808 182.422 237.855 184.686C238.918 186.949 240.47 188.707 242.511 189.959C244.569 191.211 247.09 191.837 250.074 191.837H258.408C261.392 191.837 263.905 191.211 265.946 189.959C268.003 188.707 269.556 186.941 270.602 184.66C271.665 182.379 272.197 179.695 272.197 176.608C272.197 173.556 271.665 170.897 270.602 168.634C269.556 166.37 268.003 164.612 265.946 163.36C263.905 162.108 261.392 161.482 258.408 161.482H250.074ZM257.482 148.62V204.39H251.103V148.62H257.482Z" fill="black"/>
<path d="M149.715 202.23V196.365H151.259C153.454 196.365 155.16 195.662 156.378 194.255C157.596 192.849 158.47 190.577 159.002 187.438C159.551 184.3 159.919 180.141 160.108 174.962L161.034 149.546H193.138V202.23H186.758V155.206H167.105L166.282 176.197C166.076 181.719 165.57 186.418 164.764 190.294C163.958 194.17 162.543 197.128 160.52 199.169C158.496 201.209 155.546 202.23 151.67 202.23H149.715Z" fill="black"/>
<path d="M85.7398 202.95V196.982H89.0325C90.3016 196.982 91.3648 196.733 92.2223 196.236C93.097 195.739 93.8172 195.096 94.3832 194.307C94.9663 193.518 95.4464 192.695 95.8237 191.837L96.6469 189.882L78.4341 149.546H85.3282L99.8367 182.268L113.11 149.546H119.902L101.689 193.689C100.969 195.336 100.145 196.862 99.2193 198.268C98.3104 199.675 97.0671 200.806 95.4893 201.664C93.9287 202.521 91.8107 202.95 89.1354 202.95H85.7398Z" fill="black"/>
<path d="M20.1679 155.823H28.5026C32.4127 155.823 35.8854 156.698 38.9209 158.447C41.9564 160.196 44.3402 162.631 46.0723 165.753C47.8044 168.874 48.6704 172.492 48.6704 176.608C48.6704 180.724 47.8044 184.351 46.0723 187.49C44.3402 190.628 41.9564 193.08 38.9209 194.847C35.8854 196.613 32.4127 197.496 28.5026 197.496H20.1679C16.2578 197.496 12.785 196.622 9.74952 194.872C6.71405 193.123 4.33026 190.688 2.59816 187.567C0.866052 184.446 0 180.827 0 176.711C0 172.595 0.866052 168.968 2.59816 165.83C4.33026 162.691 6.71405 160.239 9.74952 158.473C12.785 156.706 16.2578 155.823 20.1679 155.823ZM20.1679 161.482C17.1839 161.482 14.6629 162.108 12.6049 163.36C10.5641 164.612 9.01209 166.378 7.94882 168.659C6.9027 170.94 6.37963 173.624 6.37963 176.711C6.37963 179.764 6.9027 182.422 7.94882 184.686C9.01209 186.949 10.5641 188.707 12.6049 189.959C14.6629 191.211 17.1839 191.837 20.1679 191.837H28.5026C31.4866 191.837 33.999 191.211 36.0398 189.959C38.0977 188.707 39.6498 186.941 40.6959 184.66C41.7592 182.379 42.2908 179.695 42.2908 176.608C42.2908 173.556 41.7592 170.897 40.6959 168.634C39.6498 166.37 38.0977 164.612 36.0398 163.36C33.999 162.108 31.4866 161.482 28.5026 161.482H20.1679ZM27.5765 148.62V204.39H21.1968V148.62H27.5765Z" fill="black"/>
</svg>
