<svg width="24" height="25" viewBox="0 0 24 25" fill="none" xmlns="http://www.w3.org/2000/svg">
<path fill-rule="evenodd" clip-rule="evenodd" d="M6.00024 9.0957C6.00024 7.0782 6.69183 5.6042 7.73354 4.63002C8.78588 3.64588 10.2779 3.0957 12.0002 3.0957C13.7202 3.0957 15.2126 3.65015 16.2661 4.63776C17.3094 5.6158 18.0002 7.09079 18.0002 9.0957C18.0002 12.0345 16.4049 15.0699 14.6882 17.4581C13.843 18.6341 12.9959 19.6155 12.36 20.3025C12.2305 20.4425 12.11 20.57 12.0002 20.6843C11.8905 20.57 11.77 20.4425 11.6404 20.3025C11.0046 19.6155 10.1575 18.6341 9.31224 17.4581C7.59561 15.0699 6.00024 12.0345 6.00024 9.0957ZM11.3206 22.8293C11.3209 22.8295 11.3211 22.8297 12.0002 22.0957L11.3211 22.8297C11.7044 23.1844 12.2961 23.1844 12.6794 22.8297L12.0002 22.0957C12.6794 22.8297 12.6796 22.8295 12.6798 22.8293L12.6804 22.8287L12.6821 22.8272L12.6874 22.8223L12.7054 22.8054C12.7206 22.7911 12.7423 22.7706 12.77 22.7441C12.8255 22.6911 12.905 22.6141 13.0052 22.5146C13.2056 22.3159 13.4891 22.0271 13.8279 21.6609C14.5046 20.9297 15.4075 19.8841 16.3122 18.6254C18.0956 16.1444 20.0002 12.6797 20.0002 9.0957C20.0002 6.60062 19.1241 4.5756 17.6339 3.17864C16.1539 1.79125 14.1463 1.0957 12.0002 1.0957C9.85657 1.0957 7.84861 1.7841 6.36746 3.16925C4.87566 4.56436 4.00024 6.59036 4.00024 9.0957C4.00024 12.6797 5.90487 16.1444 7.68824 18.6254C8.59297 19.8841 9.49586 20.9297 10.1725 21.6609C10.5114 22.0271 10.7949 22.3159 10.9952 22.5146C11.0955 22.6141 11.175 22.6911 11.2305 22.7441C11.2582 22.7706 11.2799 22.7911 11.2951 22.8054L11.3131 22.8223L11.3184 22.8272L11.32 22.8287L11.3206 22.8293ZM10.0002 9.09473C10.0002 7.99016 10.8956 7.09473 12.0002 7.09473C13.1048 7.09473 14.0002 7.99016 14.0002 9.09473C14.0002 10.1993 13.1048 11.0947 12.0002 11.0947C10.8956 11.0947 10.0002 10.1993 10.0002 9.09473ZM12.0002 5.09473C9.79104 5.09473 8.00018 6.88559 8.00018 9.09473C8.00018 11.3039 9.79104 13.0947 12.0002 13.0947C14.2093 13.0947 16.0002 11.3039 16.0002 9.09473C16.0002 6.88559 14.2093 5.09473 12.0002 5.09473Z" fill="#5600AC"/>
</svg>
