<svg width="24" height="25" viewBox="0 0 24 25" fill="none" xmlns="http://www.w3.org/2000/svg">
<path fill-rule="evenodd" clip-rule="evenodd" d="M7.48801 3.37713L10.4999 6.57302C10.8732 6.96934 10.8734 7.59034 10.5005 7.98697L9.04455 9.53553C9.95876 12.3305 12.0032 14.5665 14.5944 15.6238L14.8845 15.7364L16.2646 14.2686C16.6523 13.8563 17.2985 13.8384 17.708 14.2287L20.7199 17.4246C21.0931 17.8209 21.0934 18.4419 20.7205 18.8386L19.9715 19.6352C18.6035 21.0901 16.5203 21.5002 14.6906 20.6746C12.1042 19.5077 10.0172 18.0814 8.42964 16.3957C6.84206 14.71 5.49814 12.4934 4.39787 9.74579C3.65062 7.87982 3.97473 5.76456 5.21213 4.31108L5.37155 4.13291L6.04467 3.41698C6.43231 3.00469 7.07851 2.98685 7.48801 3.37713Z" stroke="#5600AC" stroke-width="2" stroke-linecap="round" stroke-linejoin="round"/>
</svg>
