<svg width="24" height="24" viewBox="0 0 24 24" fill="none" xmlns="http://www.w3.org/2000/svg">
<g clip-path="url(#clip0_216_1820)">
<path d="M23.5 12C23.5 18.3513 18.3513 23.5 12 23.5C5.64872 23.5 0.5 18.3513 0.5 12C0.5 5.64873 5.64873 0.5 12 0.5C18.3513 0.5 23.5 5.64872 23.5 12Z" fill="black" stroke="black"/>
<path fill-rule="evenodd" clip-rule="evenodd" d="M9.25694 6.18762L11.2058 8.31821C11.4474 8.58242 11.4475 8.99642 11.2062 9.26084L10.2641 10.2932C10.8557 12.1565 12.1786 13.6472 13.8552 14.3521L14.0429 14.4272L14.9359 13.4486C15.1868 13.1737 15.6049 13.1618 15.8699 13.422L17.8188 15.5526C18.0603 15.8168 18.0604 16.2308 17.8191 16.4952L17.3345 17.0263C16.4494 17.9963 15.1014 18.2696 13.9174 17.7193C12.2439 16.9413 10.8935 15.9904 9.86624 14.8666C8.83898 13.7428 7.96938 12.2651 7.25744 10.4334C6.77393 9.18941 6.98365 7.77923 7.78432 6.81025L7.88747 6.69147L8.32302 6.21418C8.57385 5.93933 8.99198 5.92743 9.25694 6.18762Z" fill="white"/>
</g>
<defs>
<clipPath id="clip0_216_1820">
<rect width="24" height="24" fill="white"/>
</clipPath>
</defs>
</svg>
